<svg width="156" height="26" viewBox="0 0 156 26" fill="none" xmlns="http://www.w3.org/2000/svg">
<rect width="156" height="26" fill="black"/>
<path d="M14.1621 12.8105C14.1621 13.6621 13.9941 14.4062 13.6582 15.043C13.3262 15.6758 12.8535 16.1602 12.2402 16.4961C11.6309 16.832 10.9316 17 10.1426 17H6.80273V8.74414H9.79102C11.1816 8.74414 12.2578 9.0957 13.0195 9.79883C13.7812 10.498 14.1621 11.502 14.1621 12.8105ZM12.4219 12.8105C12.4219 11.9238 12.1914 11.248 11.7305 10.7832C11.2695 10.3145 10.6113 10.0801 9.75586 10.0801H8.53125V15.6641H9.99609C10.7383 15.6641 11.3281 15.4082 11.7656 14.8965C12.2031 14.3848 12.4219 13.6895 12.4219 12.8105ZM16.0746 17V8.74414H22.5668V10.0801H17.8031V12.1543H22.2094V13.4902H17.8031V15.6641H22.807V17H16.0746ZM31.4695 11.3574C31.4695 11.8887 31.3484 12.3633 31.1063 12.7812C30.8641 13.1992 30.5164 13.5234 30.0633 13.7539C29.6141 13.9805 29.0789 14.0938 28.4578 14.0938H26.407V17H24.6785V8.74414H28.3875C29.3758 8.74414 30.1355 8.97266 30.6668 9.42969C31.202 9.88281 31.4695 10.5254 31.4695 11.3574ZM29.7293 11.3867C29.7293 10.5195 29.2176 10.0859 28.1941 10.0859H26.407V12.7637H28.241C28.7176 12.7637 29.0848 12.6465 29.3426 12.4121C29.6004 12.1738 29.7293 11.832 29.7293 11.3867ZM33.2824 17V8.74414H35.0109V15.6641H39.4406V17H33.2824ZM49.2457 12.834C49.2457 13.6934 49.0758 14.4492 48.7359 15.1016C48.3961 15.7539 47.9098 16.2539 47.277 16.6016C46.6441 16.9453 45.9059 17.1172 45.0621 17.1172C43.7652 17.1172 42.7477 16.7363 42.0094 15.9746C41.275 15.209 40.9078 14.1621 40.9078 12.834C40.9078 11.5098 41.275 10.4766 42.0094 9.73438C42.7438 8.99219 43.7652 8.62109 45.0738 8.62109C46.3824 8.62109 47.4039 8.99609 48.1383 9.74609C48.8766 10.4961 49.2457 11.5254 49.2457 12.834ZM47.482 12.834C47.482 11.9434 47.2711 11.2461 46.8492 10.7422C46.4273 10.2344 45.8355 9.98047 45.0738 9.98047C44.3004 9.98047 43.7027 10.2324 43.2809 10.7363C42.859 11.2363 42.648 11.9355 42.648 12.834C42.648 13.7402 42.8629 14.4551 43.2926 14.9785C43.7262 15.498 44.316 15.7578 45.0621 15.7578C45.8355 15.7578 46.4313 15.5039 46.8492 14.9961C47.2711 14.4883 47.482 13.7676 47.482 12.834ZM55.2246 13.6133V17H53.502V13.6133L50.5605 8.74414H52.3711L54.3516 12.2363L56.3555 8.74414H58.166L55.2246 13.6133ZM59.7621 17V8.74414H66.2543V10.0801H61.4906V12.1543H65.8969V13.4902H61.4906V15.6641H66.4945V17H59.7621ZM75.7254 12.8105C75.7254 13.6621 75.5574 14.4062 75.2215 15.043C74.8895 15.6758 74.4168 16.1602 73.8035 16.4961C73.1941 16.832 72.4949 17 71.7059 17H68.366V8.74414H71.3543C72.7449 8.74414 73.8211 9.0957 74.5828 9.79883C75.3445 10.498 75.7254 11.502 75.7254 12.8105ZM73.9852 12.8105C73.9852 11.9238 73.7547 11.248 73.2938 10.7832C72.8328 10.3145 72.1746 10.0801 71.3191 10.0801H70.0945V15.6641H71.5594C72.3016 15.6641 72.8914 15.4082 73.3289 14.8965C73.7664 14.3848 73.9852 13.6895 73.9852 12.8105ZM81.5777 17V8.74414H83.3063V17H81.5777ZM90.5449 17L86.9473 10.6426C87.0176 11.2598 87.0527 11.7559 87.0527 12.1309V17H85.5176V8.74414H87.4922L91.1426 15.1543C91.0723 14.5645 91.0371 14.0273 91.0371 13.543V8.74414H92.5723V17H90.5449ZM102.813 17H101.061L98.0086 8.74414H99.8133L101.512 14.0469C101.618 14.3906 101.762 14.9102 101.946 15.6055L102.069 15.1016L102.368 14.0469L104.061 8.74414H105.848L102.813 17ZM107.333 17V8.74414H113.825V10.0801H109.062V12.1543H113.468V13.4902H109.062V15.6641H114.066V17H107.333ZM121.609 17L119.693 13.8652H117.666V17H115.937V8.74414H120.062C121.046 8.74414 121.806 8.95703 122.341 9.38281C122.877 9.80469 123.144 10.4121 123.144 11.2051C123.144 11.7832 122.98 12.2832 122.652 12.7051C122.324 13.123 121.88 13.3984 121.322 13.5312L123.554 17H121.609ZM121.404 11.2754C121.404 10.4824 120.896 10.0859 119.88 10.0859H117.666V12.5234H119.927C120.412 12.5234 120.779 12.4141 121.029 12.1953C121.279 11.9766 121.404 11.6699 121.404 11.2754ZM129.064 15.7578C130.107 15.7578 130.832 15.2344 131.238 14.1875L132.744 14.7559C132.42 15.5527 131.943 16.1465 131.314 16.5371C130.689 16.9238 129.939 17.1172 129.064 17.1172C127.736 17.1172 126.709 16.7422 125.982 15.9922C125.26 15.2383 124.898 14.1855 124.898 12.834C124.898 11.4785 125.248 10.4375 125.947 9.71094C126.646 8.98438 127.66 8.62109 128.988 8.62109C129.957 8.62109 130.746 8.81641 131.355 9.20703C131.965 9.59375 132.393 10.1641 132.639 10.918L131.115 11.334C130.986 10.9199 130.732 10.5918 130.354 10.3496C129.979 10.1035 129.535 9.98047 129.023 9.98047C128.242 9.98047 127.648 10.2227 127.242 10.707C126.84 11.1914 126.639 11.9004 126.639 12.834C126.639 13.7832 126.846 14.5078 127.26 15.0078C127.678 15.5078 128.279 15.7578 129.064 15.7578ZM134.481 17V8.74414H140.973V10.0801H136.209V12.1543H140.616V13.4902H136.209V15.6641H141.213V17H134.481ZM143.085 17V8.74414H144.813V15.6641H149.243V17H143.085Z" fill="white"/>
</svg>
